<svg id="Layer_1" height="512" viewBox="0 0 512 512" width="512" xmlns="http://www.w3.org/2000/svg" data-name="Layer 1"><path d="m235.921 31.283c2 25.71-.57 65.91-2.12 85.84a24.9 24.9 0 0 0 -11.05 8.68 345.059 345.059 0 0 1 -38.08-4.35 105.719 105.719 0 0 1 51.25-90.17z" fill="#de3c44"/><path d="m215.251 33.883a115.721 115.721 0 0 0 -40.55 85.71q-9.39-1.89-18.65-4.29a87.02 87.02 0 0 1 59.2-81.42z" fill="#c92b32"/><path d="m236.37 40.012c-.112-2.653-.26-5.206-.449-7.629a105.718 105.718 0 0 0 -51.25 90.17q4.5.766 9.01 1.413a105.691 105.691 0 0 1 42.689-83.954z" fill="#ad2a34"/><path d="m200.022 49.623a115.737 115.737 0 0 1 15.229-15.74 87.019 87.019 0 0 0 -59.2 81.42q4.5 1.166 9.025 2.209a86.782 86.782 0 0 1 34.946-67.889z" fill="#ad2a34"/><path d="m242.9 125.383a14.725 14.725 0 1 1 -14.72 14.73 14.741 14.741 0 0 1 14.72-14.73z" fill="#de3c44"/><path d="m218.181 140.113a24.625 24.625 0 0 0 2.22 10.23 345.419 345.419 0 0 1 -79.33-14.6 15.63 15.63 0 0 1 -.86-14.49 355.851 355.851 0 0 0 78.39 14.31 25.247 25.247 0 0 0 -.42 4.55z" fill="#f4c161"/><path d="m345.361 121.323a15.94 15.94 0 0 1 -.7 14.44 345.434 345.434 0 0 1 -79.26 14.58 24.625 24.625 0 0 0 2.22-10.23 25.247 25.247 0 0 0 -.42-4.55 355.582 355.582 0 0 0 78.16-14.24z" fill="#f4c161"/><path d="m259.8 31.033a87 87 0 0 1 69.95 84.27q-12.84 3.33-25.91 5.68a115.69 115.69 0 0 0 -44.04-89.95z" fill="#de3c44"/><path d="m293.861 121.923v.69c-10.21 1.53-20.5 2.59-30.81 3.19a24.71 24.71 0 0 0 -19.09-10.39c1.51-20.09 3.71-56.54 2.13-81.93a105.7 105.7 0 0 1 47.77 88.44z" fill="#c92b32"/><path d="m386.171 106.043a76.427 76.427 0 0 0 45.19 16.24l.39.01a6.851 6.851 0 0 1 6.66 6.14c1.19 12.44 3.3 33.59 4.86 49.14a3.881 3.881 0 0 1 -6.08 3.58l-6.56-4.56a66.318 66.318 0 0 1 -20.56-23.1l-26.43-49.43z" fill="#e288a0"/><path d="m410.071 153.493a66.318 66.318 0 0 0 20.56 23.1l6.56 4.56a3.881 3.881 0 0 0 6.08-3.58c-1.56-15.55-3.67-36.7-4.86-49.14a6.851 6.851 0 0 0 -6.66-6.14l-.39-.01a76.427 76.427 0 0 1 -45.19-16.24l-2.53-1.98zm-140.36 244.5a153.48 153.48 0 0 0 98.2-35.55 148.655 148.655 0 0 0 51.489-89.343 127.292 127.292 0 0 0 -6.11-25.51 148.026 148.026 0 0 1 -1.87 20.75 142.387 142.387 0 0 1 -49.47 86.4 146.738 146.738 0 0 1 -93.9 34.01h-.02l-49.46-.01a146.738 146.738 0 0 1 -93.9-34.01 142.435 142.435 0 0 1 -49.45-86.4 147.8 147.8 0 0 1 -1.87-20.83q-1.86 5.25-3.26 10.66a128.181 128.181 0 0 0 -3.71 23.32 149.254 149.254 0 0 0 52.63 83.24 153.9 153.9 0 0 0 95.38 33.27h55.32zm-200.06-78.33a126.967 126.967 0 0 0 40.3 66.19c19.02 16.48 29.15 58.72 29.15 82.88v9.23a13.055 13.055 0 0 0 13.04 13.037h33.03a13.055 13.055 0 0 0 13.04-13.04 23.065 23.065 0 0 1 23.04-23.04h31.99a23.065 23.065 0 0 1 23.04 23.04 13.055 13.055 0 0 0 13.04 13.04h33.03a13.055 13.055 0 0 0 13.04-13.04c0-25.48 11.9-69.69 34.24-86.43a127.055 127.055 0 0 0 49.28-81.38 159.543 159.543 0 0 1 -44.6 59.97 163.484 163.484 0 0 1 -104.6 37.87h-55.32a163.862 163.862 0 0 1 -101.6-35.45 160.154 160.154 0 0 1 -43.14-52.877zm6.82-148.34c7.63 10.48 13.36 26.93 13.62 27.67a4.978 4.978 0 0 1 .02 3.19 137.4 137.4 0 0 0 -5.02 64.55 132.359 132.359 0 0 0 45.99 80.32 136.743 136.743 0 0 0 87.49 31.69l49.47.01h.01a136.78 136.78 0 0 0 87.5-31.68 132.446 132.446 0 0 0 46-80.33 137.354 137.354 0 0 0 -5.04-64.6 4.977 4.977 0 0 1 .03-3.19c.25-.74 5.98-17.16 13.61-27.63a76.293 76.293 0 0 1 -8.9-13.12l-33.54-62.72c-4.62 8.15-9.19 17.98-12.15 24.64a25.933 25.933 0 0 1 -3.31 22.35l-.23.34a4.928 4.928 0 0 1 -2.64 1.95l-.25.08a355.6 355.6 0 0 1 -92.75 15.98 24.662 24.662 0 0 1 -26.96 0 355.475 355.475 0 0 1 -93.01-16.06 5 5 0 0 1 -2.51-1.78 25.64 25.64 0 0 1 -3.81-23.19 255.791 255.791 0 0 0 -11.23-24.23l-33.49 62.637a76.293 76.293 0 0 1 -8.9 13.123zm-31.23 9.99a3.763 3.763 0 0 0 4.18-.16l6.57-4.56a66.516 66.516 0 0 0 20.56-23.1l26.43-49.43-2.54 1.98a76.4 76.4 0 0 1 -45.18 16.24l-.4.01a6.859 6.859 0 0 0 -6.66 6.14c-1.19 12.45-3.3 33.6-4.86 49.14a3.773 3.773 0 0 0 1.9 3.74zm428.44 94.46a5 5 0 0 1 0 10h-7.65a20.034 20.034 0 0 0 -17.34 10.04h5.52a18.189 18.189 0 0 1 18.17 18.17v10.37a18.17 18.17 0 1 1 -36.34 0v-18.54h-6.441a135.969 135.969 0 0 1 -39.19 80.91 138.333 138.333 0 0 1 -14.78 12.81c-14.3 10.72-30.24 45.56-30.24 78.43a23.065 23.065 0 0 1 -23.039 23.037h-33.03a23.072 23.072 0 0 1 -23.04-23.04 13.055 13.055 0 0 0 -13.04-13.04h-31.99a13.055 13.055 0 0 0 -13.04 13.04 23.072 23.072 0 0 1 -23.04 23.04h-33.03a23.065 23.065 0 0 1 -23.04-23.04v-9.23c0-21.68-9.15-60.98-25.7-75.32a136.917 136.917 0 0 1 -47.3-103.52c0-2.53.08-5.05.22-7.56-.03-.15-.07-.29-.1-.44l.12-.03a138.722 138.722 0 0 1 4.06-26.19 136.663 136.663 0 0 1 12.23-31.06c.84-1.55 1.77-3.18 2.9-5.07a147.34 147.34 0 0 1 4.55-18.82c-1.46-3.93-5.65-14.59-10.68-22.07a76.126 76.126 0 0 1 -7.71 6.15l-6.56 4.56a13.884 13.884 0 0 1 -21.74-12.79c1.56-15.53 3.67-36.66 4.86-49.09a16.85 16.85 0 0 1 16.34-15.18l.39-.01a66.464 66.464 0 0 0 39.31-14.14l21.16-16.5a5 5 0 0 1 6.29.12 4.948 4.948 0 0 1 1.15 1.4l.14-.09c4.84 7.18 9.77 17.51 13.74 26.76a22.353 22.353 0 0 1 9.8-3.49 97.044 97.044 0 0 1 80.24-85.64 14.225 14.225 0 0 1 26.7-.76 97.022 97.022 0 0 1 85.72 86.4 22.261 22.261 0 0 1 9.96 3.6c4.01-8.65 9.39-19.46 14.4-26.87l.14.09a5.085 5.085 0 0 1 1.14-1.4 5.012 5.012 0 0 1 6.3-.12l21.15 16.5a66.517 66.517 0 0 0 39.32 14.14l.39.01a16.858 16.858 0 0 1 16.34 15.18c1.18 12.42 3.29 33.55 4.85 49.09a13.853 13.853 0 0 1 -21.73 12.79l-6.57-4.56a76.005 76.005 0 0 1 -7.7-6.15c-5.04 7.48-9.21 18.1-10.67 22.03a147.211 147.211 0 0 1 4.57 18.92 136.723 136.723 0 0 1 19.39 70.29c0 1.98-.05 3.95-.13 5.92h7.35a30.06 30.06 0 0 1 28.3-20.04zm-11.3 48.58v-10.37a8.186 8.186 0 0 0 -8.17-8.17h-8.17v18.54a8.17 8.17 0 1 0 16.34 0zm-117.72-188.59a15.94 15.94 0 0 0 .7-14.44 355.582 355.582 0 0 1 -78.16 14.24 25.247 25.247 0 0 1 .42 4.55 24.625 24.625 0 0 1 -2.22 10.23 345.434 345.434 0 0 0 79.26-14.58zm-14.91-20.46a87 87 0 0 0 -69.95-84.27 115.69 115.69 0 0 1 44.04 89.95q13.065-2.34 25.91-5.683zm-35.89 7.31v-.69a105.7 105.7 0 0 0 -47.77-88.44c1.58 25.39-.62 61.84-2.13 81.93a24.71 24.71 0 0 1 19.09 10.39c10.31-.603 20.6-1.66 30.81-3.19zm-36.24 17.5a14.72 14.72 0 1 0 -14.72 14.72 14.741 14.741 0 0 0 14.72-14.72zm-23.82-22.99c1.55-19.93 4.12-60.13 2.12-85.84a105.719 105.719 0 0 0 -51.25 90.17 345.059 345.059 0 0 0 38.08 4.35 24.9 24.9 0 0 1 11.049-8.68zm-13.4 33.22a24.625 24.625 0 0 1 -2.22-10.23 25.247 25.247 0 0 1 .42-4.55 355.851 355.851 0 0 1 -78.39-14.31 15.63 15.63 0 0 0 .86 14.49 345.419 345.419 0 0 0 79.329 14.6zm-45.7-30.75a115.721 115.721 0 0 1 40.55-85.71 87.02 87.02 0 0 0 -59.2 81.42q9.255 2.397 18.649 4.29z" fill="#0f3047"/><path d="m118.861 95.563a255.791 255.791 0 0 1 11.23 24.23 25.64 25.64 0 0 0 3.81 23.19 5 5 0 0 0 2.51 1.78 355.475 355.475 0 0 0 93.01 16.06 24.662 24.662 0 0 0 26.96 0 355.6 355.6 0 0 0 92.75-15.98l.25-.08a4.928 4.928 0 0 0 2.64-1.95l.23-.34a25.933 25.933 0 0 0 3.31-22.35c2.96-6.66 7.53-16.49 12.15-24.64l33.54 62.72a76.293 76.293 0 0 0 8.9 13.12c-7.63 10.47-13.36 26.89-13.61 27.63a4.977 4.977 0 0 0 -.03 3.19 137.354 137.354 0 0 1 5.04 64.6 132.446 132.446 0 0 1 -46 80.33 136.78 136.78 0 0 1 -87.5 31.68h-.01l-49.47-.01a136.743 136.743 0 0 1 -87.49-31.69 132.359 132.359 0 0 1 -45.99-80.32 137.4 137.4 0 0 1 5.02-64.55 4.978 4.978 0 0 0 -.02-3.19c-.26-.74-5.99-17.19-13.62-27.67a76.293 76.293 0 0 0 8.9-13.12z" fill="#ffb6c7"/><path d="m351.361 214.983a5 5 0 1 1 -10 0 14.69 14.69 0 0 0 -29.38 0 5 5 0 0 1 -10 0 24.69 24.69 0 0 1 49.38 0z" fill="#0f3047"/><path d="m186.251 272.813a80.8 80.8 0 0 1 114.14 0 12.136 12.136 0 0 1 .34 16.82l-19.09 12.34a70.572 70.572 0 0 1 -76.64 0l-19.09-12.34a12.136 12.136 0 0 1 .34-16.82zm80.94 13.45v-9.2a5 5 0 0 0 -10 0v9.2a5 5 0 0 0 10 0zm-37.77 0v-9.2a5 5 0 0 0 -10 0v9.2a5 5 0 0 0 10 0z" fill="#e288a0"/><path d="m69.651 319.663a160.154 160.154 0 0 0 43.14 52.88 163.862 163.862 0 0 0 101.6 35.45h55.32a163.484 163.484 0 0 0 104.6-37.87 159.543 159.543 0 0 0 44.6-59.97 127.055 127.055 0 0 1 -49.28 81.38c-22.34 16.74-34.24 60.95-34.24 86.43a13.055 13.055 0 0 1 -13.04 13.037h-33.03a13.055 13.055 0 0 1 -13.04-13.04 23.065 23.065 0 0 0 -23.04-23.04h-31.99a23.065 23.065 0 0 0 -23.04 23.04 13.055 13.055 0 0 1 -13.04 13.04h-33.03a13.055 13.055 0 0 1 -13.04-13.04v-9.23c0-24.16-10.13-66.4-29.15-82.88a126.967 126.967 0 0 1 -40.3-66.187z" fill="#ffb6c7"/><path d="m267.191 277.063v9.2a5 5 0 0 1 -10 0v-9.2a5 5 0 0 1 10 0z" fill="#0f3047"/><path d="m253.931 423.083a5.01 5.01 0 0 1 0 7.07l-7.07 7.07a5 5 0 0 1 -7.08 0l-7.07-7.07a5.01 5.01 0 0 1 0-7.07l7.07-7.07a5.022 5.022 0 0 1 7.08 0z" fill="#0f3047"/><path d="m185.911 289.633 19.089 12.34a70.572 70.572 0 0 0 76.64 0l19.09-12.34a12.136 12.136 0 0 0 -.34-16.82 80.8 80.8 0 0 0 -114.14 0 12.136 12.136 0 0 0 -.34 16.82zm121.56-23.89a22.15 22.15 0 0 1 0 31.31 5.407 5.407 0 0 1 -.83.67l-19.57 12.65a80.586 80.586 0 0 1 -87.5 0l-19.571-12.65a5.407 5.407 0 0 1 -.83-.67 22.15 22.15 0 0 1 0-31.31 90.829 90.829 0 0 1 128.301 0z" fill="#0f3047"/><path d="m243.321 441.623a15 15 0 1 0 -15-15 15.018 15.018 0 0 0 15 15zm16.65-33.63a25 25 0 1 1 -33.3 0z" fill="#0f3047"/><path d="m228.321 426.623a15 15 0 0 1 30 0h-2.93a5.022 5.022 0 0 0 -1.46-3.54l-7.07-7.07a5.022 5.022 0 0 0 -7.08 0l-7.07 7.07a5.022 5.022 0 0 0 -1.46 3.54z" fill="#c92b32"/><path d="m243.321 441.623a15.018 15.018 0 0 1 -15-15h2.93a4.982 4.982 0 0 0 1.46 3.53l7.07 7.07a5 5 0 0 0 7.08 0l7.07-7.07a4.982 4.982 0 0 0 1.46-3.53h2.93a15.018 15.018 0 0 1 -15 15z" fill="#c92b32"/><path d="m229.421 277.063v9.2a5 5 0 0 1 -10 0v-9.2a5 5 0 0 1 10 0z" fill="#0f3047"/><path d="m202.041 14.773a5 5 0 0 1 -3.62 6.08 75.986 75.986 0 0 0 -31.15 16.13 79.451 79.451 0 0 0 -7.14 6.97c-1.78 1.95-3.49 4.02-5.1 6.17-1.09 1.46-2.16 2.97-3.16 4.49a5 5 0 0 1 -4.18 2.26 5.008 5.008 0 0 1 -4.17-7.75c1.11-1.69 2.29-3.38 3.51-5 1.8-2.4 3.71-4.71 5.69-6.89a88.52 88.52 0 0 1 8.04-7.83 85.85 85.85 0 0 1 35.2-18.25 5 5 0 0 1 6.08 3.62z" fill="#0f3047"/><path d="m184.631 214.983a5 5 0 0 1 -10 0 14.69 14.69 0 0 0 -29.38 0 5 5 0 0 1 -10 0 24.69 24.69 0 0 1 49.38 0z" fill="#0f3047"/><path d="m142.2 61.053a4.991 4.991 0 0 1 2.58 6.58 51.592 51.592 0 0 0 -2.08 5.39 5.022 5.022 0 0 1 -4.79 3.55 4.8 4.8 0 0 1 -1.44-.22 4.989 4.989 0 0 1 -3.35-6.21 61.639 61.639 0 0 1 2.5-6.52 4.993 4.993 0 0 1 6.58-2.57z" fill="#0f3047"/><path d="m73.351 247.5a147.8 147.8 0 0 0 1.87 20.83 142.435 142.435 0 0 0 49.45 86.4 146.738 146.738 0 0 0 93.9 34.01l49.46.01h.02a146.738 146.738 0 0 0 93.9-34.01 142.387 142.387 0 0 0 49.47-86.4 148.026 148.026 0 0 0 1.87-20.75 127.292 127.292 0 0 1 6.11 25.51 148.655 148.655 0 0 1 -51.49 89.34 153.48 153.48 0 0 1 -98.2 35.55h-55.32a153.9 153.9 0 0 1 -95.38-33.27 149.254 149.254 0 0 1 -52.63-83.24 128.181 128.181 0 0 1 3.71-23.32q1.395-5.397 3.26-10.66z" fill="#f4c161"/><g fill="#e288a0"><path d="m49.421 181.153a3.884 3.884 0 0 1 -6.08-3.58c1.56-15.54 3.67-36.69 4.86-49.14a6.859 6.859 0 0 1 6.66-6.14l.4-.01a76.4 76.4 0 0 0 45.18-16.24l2.54-1.98-26.43 49.43a66.516 66.516 0 0 1 -20.56 23.1z"/><path d="m243.571 378.743a136.743 136.743 0 0 1 -87.49-31.69 132.359 132.359 0 0 1 -45.99-80.32 137.4 137.4 0 0 1 5.02-64.551 4.975 4.975 0 0 0 -.02-3.189c-.26-.74-5.99-17.19-13.62-27.67a76.262 76.262 0 0 0 8.9-13.121l18.956-35.454a25.639 25.639 0 0 1 .764-2.955 255.676 255.676 0 0 0 -11.23-24.23l-33.49 62.637a76.262 76.262 0 0 1 -8.9 13.121c7.63 10.48 13.36 26.93 13.62 27.67a4.975 4.975 0 0 1 .02 3.189 137.4 137.4 0 0 0 -5.02 64.551 132.359 132.359 0 0 0 45.99 80.32 136.743 136.743 0 0 0 87.49 31.69l49.47.01h.01.452z"/><path d="m164.1 477.962v-9.229c0-22.659-8.91-61.22-25.708-79.52a161.954 161.954 0 0 1 -25.6-16.67 160.147 160.147 0 0 1 -43.14-52.881 126.963 126.963 0 0 0 40.3 66.19c19.02 16.48 29.15 58.721 29.15 82.881v9.229a13.056 13.056 0 0 0 13.039 13.038h25a13.056 13.056 0 0 1 -13.041-13.038z"/><path d="m301.281 477.962a23.066 23.066 0 0 0 -23.04-23.04h-25a23.066 23.066 0 0 1 23.04 23.04 13.056 13.056 0 0 0 13.04 13.038h25a13.056 13.056 0 0 1 -13.04-13.038z"/></g><path d="m159.071 140.743c-2.66-4.411-2.325-9.77-.225-14.42l-18.635-5.07a15.631 15.631 0 0 0 .86 14.49q9.059 2.792 18.25 5.074z" fill="#efaf48"/><path d="m238.181 140.113a14.741 14.741 0 0 1 9.72-13.837 14.724 14.724 0 1 0 0 27.664 14.726 14.726 0 0 1 -9.72-13.827z" fill="#ad2a34"/></svg>